<svg xmlns="http://www.w3.org/2000/svg" viewBox="0 0 243.89 102.51"><title>Asset 1</title><path d="M51.29,26A27.4,27.4,0,0,1,49.35,36.5,24.38,24.38,0,0,1,44,44.78a24.41,24.41,0,0,1-8.35,5.33,28.4,28.4,0,0,1-10.73,2H.39V47.81a2.09,2.09,0,0,1,1.8-2.23l.43-.08a1.62,1.62,0,0,0,.47-.07c.17,0,.37-.09.61-.14l2.16-.36V7.13L3.7,6.77l-.61-.15a2.06,2.06,0,0,0-.47-.07l-.43-.07A2.1,2.1,0,0,1,.39,4.25V0H24.94A28.59,28.59,0,0,1,35.67,1.94,24.56,24.56,0,0,1,44,7.27a24.76,24.76,0,0,1,5.33,8.21A27.43,27.43,0,0,1,51.29,26Zm-9.93,0a23.84,23.84,0,0,0-1.15-7.63A17.47,17.47,0,0,0,37,12.6,15.64,15.64,0,0,0,31.78,9a17.24,17.24,0,0,0-6.84-1.3H15.58V44.35h9.36a17.24,17.24,0,0,0,6.84-1.29A15.79,15.79,0,0,0,37,39.46a16.75,16.75,0,0,0,3.24-5.76A24.13,24.13,0,0,0,41.36,26Z" fill="#fff"/><path d="M82,15.62a14.07,14.07,0,0,1,5,3.32,15,15,0,0,1,3.31,5.25,19.72,19.72,0,0,1,1.22,7.06A10.17,10.17,0,0,1,91.47,33a3.2,3.2,0,0,1-.29,1,1.08,1.08,0,0,1-.65.58,2.4,2.4,0,0,1-1,.14H66.7c.29,3.8,1.32,6.58,3.1,8.36a9.55,9.55,0,0,0,7,2.66,11.55,11.55,0,0,0,3.68-.5,14.55,14.55,0,0,0,2.73-1.16q.51-.29,1-.54a10.24,10.24,0,0,0,1-.54,3.09,3.09,0,0,1,1.66-.5,2.11,2.11,0,0,1,1,.22,1.38,1.38,0,0,1,.65.57l2.59,3.24a16.31,16.31,0,0,1-3.31,3,18.92,18.92,0,0,1-3.81,1.88,27.93,27.93,0,0,1-4.11.93,25.84,25.84,0,0,1-4,.29,19.78,19.78,0,0,1-7.13-1.22,16.62,16.62,0,0,1-5.76-3.82,17.55,17.55,0,0,1-3.89-6.19,24.19,24.19,0,0,1-1.36-8.57,20.94,20.94,0,0,1,1.22-7.06,16.93,16.93,0,0,1,3.53-5.83A16,16,0,0,1,68.14,16a18.63,18.63,0,0,1,7.49-1.44A18.15,18.15,0,0,1,82,15.62ZM69.73,23.11a11,11,0,0,0-2.81,6.19h16.7a11.9,11.9,0,0,0-.5-3.24,8.58,8.58,0,0,0-1.44-2.66,6.26,6.26,0,0,0-2.45-1.8,8.58,8.58,0,0,0-3.46-.72A8.18,8.18,0,0,0,69.73,23.11Z" fill="#fff"/><path d="M136.11,47.81v4.25H120.05V47.81a2.08,2.08,0,0,1,1.73-2.23l-4.9-8a8.4,8.4,0,0,1-.93,2.16l-3.74,5.76.43.08a2.09,2.09,0,0,1,1.8,2.23v4.25H98.38V47.81a2.11,2.11,0,0,1,1.87-2.23l3-.51,8.06-12L103.92,22.1l-3-.5a2.1,2.1,0,0,1-1.8-2.23V15.12h16v4.25a2.1,2.1,0,0,1-1.8,2.23l4.39,7.06.43-1.23a5.63,5.63,0,0,1,.72-1.22l2.81-4.47-.58-.14a2.1,2.1,0,0,1-1.8-2.23V15.12h16.06v4.25a2.1,2.1,0,0,1-1.8,2.23l-3.1.5-7.34,10.52,8.14,12.45,3,.51A2.09,2.09,0,0,1,136.11,47.81Z" fill="#fff"/><path d="M150.87,49.9a10.45,10.45,0,0,1-2.59-7.49V21.82h-3.75a2,2,0,0,1-1.22-.51,1.58,1.58,0,0,1-.58-1.37v-3.6l6-.93,1.87-10.08a1.52,1.52,0,0,1,.65-1.08,2.2,2.2,0,0,1,1.37-.43h4.6V15.48h9.72v6.34H157.2v20a4,4,0,0,0,.87,2.67,3,3,0,0,0,2.3.93,4.53,4.53,0,0,0,1.37-.14l.94-.43.79-.44a1,1,0,0,1,.57-.14,1.16,1.16,0,0,1,.72.14l.51.58,2.66,4.32a15.16,15.16,0,0,1-4.46,2.45,15.61,15.61,0,0,1-5.19.86Q153.46,52.63,150.87,49.9Z" fill="#fff"/><path d="M198.46,15.62a14.07,14.07,0,0,1,5,3.32,15,15,0,0,1,3.31,5.25A19.72,19.72,0,0,1,208,31.25a10.2,10.2,0,0,1-.15,1.73,3.2,3.2,0,0,1-.29,1,1.06,1.06,0,0,1-.64.58,2.45,2.45,0,0,1-1,.14H183.12c.29,3.8,1.32,6.58,3.1,8.36a9.55,9.55,0,0,0,7.05,2.66,11.51,11.51,0,0,0,3.68-.5,14.55,14.55,0,0,0,2.73-1.16q.51-.29,1-.54a10.24,10.24,0,0,0,1-.54,3.09,3.09,0,0,1,1.66-.5,2.18,2.18,0,0,1,1,.22,1.41,1.41,0,0,1,.64.57l2.59,3.24a16.31,16.31,0,0,1-3.31,3,18.92,18.92,0,0,1-3.81,1.88,27.93,27.93,0,0,1-4.11.93,25.84,25.84,0,0,1-4,.29,19.78,19.78,0,0,1-7.13-1.22,16.62,16.62,0,0,1-5.76-3.82,17.39,17.39,0,0,1-3.88-6.19,24,24,0,0,1-1.37-8.57,20.94,20.94,0,0,1,1.22-7.06A17.08,17.08,0,0,1,179,19.87,16,16,0,0,1,184.56,16a18.63,18.63,0,0,1,7.49-1.44A18.15,18.15,0,0,1,198.46,15.62Zm-12.31,7.49a11,11,0,0,0-2.81,6.19H200a11.9,11.9,0,0,0-.5-3.24,8.58,8.58,0,0,0-1.44-2.66,6.26,6.26,0,0,0-2.45-1.8,8.58,8.58,0,0,0-3.46-.72A8.18,8.18,0,0,0,186.15,23.11Z" fill="#fff"/><path d="M243.89,15.7l-1.15,6.69a1.11,1.11,0,0,1-.43.87,1.81,1.81,0,0,1-1,.28,7,7,0,0,1-1.44-.21,11.75,11.75,0,0,0-2.52-.29,7.48,7.48,0,0,0-4.75,1.51,12.24,12.24,0,0,0-3.32,4.54V44.93l3.61.65a2.09,2.09,0,0,1,1.79,2.23v4.25H215V47.81a2.09,2.09,0,0,1,1.8-2.23l3.6-.65V22.25l-3.6-.65a2.1,2.1,0,0,1-1.8-2.23V15.12H225.6a2.67,2.67,0,0,1,1.87.5,3.29,3.29,0,0,1,.73,1.73l.57,4.47a15.63,15.63,0,0,1,4.61-5.4,10.07,10.07,0,0,1,6-2A7.65,7.65,0,0,1,243.89,15.7Z" fill="#fff"/><path d="M30.37,93.65v1.68H21.71V93.65A.64.64,0,0,1,22.3,93L24,92.47l-2.35-6h-13l-2.35,6L8.06,93a.62.62,0,0,1,.55.67v1.68H0V93.65A.62.62,0,0,1,.55,93l1.68-.51L13.15,65.26h4.11L28.14,92.47l1.68.51A.63.63,0,0,1,30.37,93.65ZM16.09,71.93q-.35-.84-.93-2.85a29.67,29.67,0,0,1-.84,2.85L9.83,83.48H20.54Z" fill="#fff"/><path d="M42.08,94.24a5.51,5.51,0,0,1-1.34-4v-13H38.18a.94.94,0,0,1-.59-.16.8.8,0,0,1-.21-.63V74.92l3.49-.47.84-6.59a.55.55,0,0,1,.25-.5.87.87,0,0,1,.59-.17h1.89V74.5h6.09v2.73H44.44V90a2.76,2.76,0,0,0,.63,2,2.32,2.32,0,0,0,1.72.63,4,4,0,0,0,1.05-.17,4.08,4.08,0,0,0,.75-.33l.26-.17.25-.17a1.48,1.48,0,0,1,.42-.17A.59.59,0,0,1,50,92l1.09,1.76a7.89,7.89,0,0,1-2.35,1.43,8,8,0,0,1-2.81.5A5.24,5.24,0,0,1,42.08,94.24Z" fill="#fff"/><path d="M62.79,94.24a5.48,5.48,0,0,1-1.35-4v-13H58.88a1,1,0,0,1-.59-.16.8.8,0,0,1-.21-.63V74.92l3.49-.47.84-6.59a.58.58,0,0,1,.25-.5.88.88,0,0,1,.59-.17h1.89V74.5h6.09v2.73H65.14V90a2.76,2.76,0,0,0,.63,2,2.32,2.32,0,0,0,1.72.63,3.94,3.94,0,0,0,1.05-.17,4.17,4.17,0,0,0,.76-.33l.25-.17.25-.17a1.76,1.76,0,0,1,.42-.17.6.6,0,0,1,.51.34l1.09,1.76a8,8,0,0,1-2.35,1.43,8.15,8.15,0,0,1-2.82.5A5.22,5.22,0,0,1,62.79,94.24Z" fill="#fff"/><path d="M93.53,74.5a9.5,9.5,0,0,1,3.24,2.18,9.08,9.08,0,0,1,2,3.44,14.67,14.67,0,0,1,0,9.08,9.08,9.08,0,0,1-2,3.44,9.5,9.5,0,0,1-3.24,2.18,12,12,0,0,1-8.4,0,9.37,9.37,0,0,1-3.23-2.18,9.84,9.84,0,0,1-2.06-3.44,15.72,15.72,0,0,1,0-9.08,9.84,9.84,0,0,1,2.06-3.44,9.37,9.37,0,0,1,3.23-2.18,12,12,0,0,1,8.4,0ZM94,90.62a10.07,10.07,0,0,0,1.55-5.92A10.09,10.09,0,0,0,94,78.78a5.34,5.34,0,0,0-4.71-2.1,6.93,6.93,0,0,0-2.77.5,5.2,5.2,0,0,0-1.93,1.6,7.5,7.5,0,0,0-1.18,2.52A14.15,14.15,0,0,0,83,84.74a13.81,13.81,0,0,0,.42,3.36,7.32,7.32,0,0,0,1.18,2.52,4.75,4.75,0,0,0,1.93,1.52,6.88,6.88,0,0,0,2.77.58A5.34,5.34,0,0,0,94,90.62Z" fill="#fff"/><path d="M120.37,73.66a5.57,5.57,0,0,1,2.9.75l-.46,2.82c-.09.36-.27.54-.55.54a4.23,4.23,0,0,1-1-.21,6.13,6.13,0,0,0-1.72-.21c-2.46,0-4.28,1.49-5.46,4.45V92.3l2.39.47a.72.72,0,0,1,.63.79v1.77h-9.78V93.56a.72.72,0,0,1,.63-.79l2.39-.47V77.14c-1.34-.25-2.14-.42-2.39-.5a.73.73,0,0,1-.63-.8V74.08h5.16a1.13,1.13,0,0,1,.8.21,1.68,1.68,0,0,1,.34.79l.25,3.32h0Q116.26,73.66,120.37,73.66Z" fill="#fff"/><path d="M144.52,73.7a6.49,6.49,0,0,1,5.29,2.22,8.87,8.87,0,0,1,1.81,5.84V92.22c1.34.25,2.14.42,2.39.5a.74.74,0,0,1,.67.8v1.81h-6.8V81.8q0-5.11-4.45-5.12a7.71,7.71,0,0,0-5.8,3v12.6c.11,0,.93.17,2.44.51a.72.72,0,0,1,.63.79v1.77h-9.79V93.56a.71.71,0,0,1,.59-.79l2.44-.47V77.14c-1.4-.25-2.22-.42-2.44-.5a.72.72,0,0,1-.59-.8V74.08h5.21a1,1,0,0,1,1,.75l.33,2.31v0A9.45,9.45,0,0,1,144.52,73.7Z" fill="#fff"/><path d="M175.47,74.37a7.11,7.11,0,0,1,2.78,1.81,8.47,8.47,0,0,1,1.84,3,11.88,11.88,0,0,1,.68,4,2.43,2.43,0,0,1-.17,1.18.88.88,0,0,1-.76.29H165.73a11.39,11.39,0,0,0,.5,3.53,6.75,6.75,0,0,0,1.43,2.43,5.54,5.54,0,0,0,2.1,1.52,7.31,7.31,0,0,0,2.69.5,8.51,8.51,0,0,0,2.44-.29,17.16,17.16,0,0,0,1.76-.72c.62-.31,1-.53,1.26-.67a1.86,1.86,0,0,1,.84-.34.8.8,0,0,1,.71.38l1,1.39a6.29,6.29,0,0,1-1.68,1.43,9.71,9.71,0,0,1-2.05,1.05,14.88,14.88,0,0,1-2.27.58,14.14,14.14,0,0,1-2.31.21,11,11,0,0,1-4.08-.75,9,9,0,0,1-3.23-2.23,9.34,9.34,0,0,1-2.1-3.57,14.69,14.69,0,0,1-.76-4.87,11.7,11.7,0,0,1,.72-4.12,10,10,0,0,1,2-3.36,9.09,9.09,0,0,1,3.15-2.22,10.33,10.33,0,0,1,4.12-.8A9.59,9.59,0,0,1,175.47,74.37ZM167.83,78a7.68,7.68,0,0,0-1.93,4.37h11.55a6.94,6.94,0,0,0-.38-2.35,5.43,5.43,0,0,0-1-1.89,5.52,5.52,0,0,0-1.72-1.22,5.74,5.74,0,0,0-2.31-.42l0,0A5.66,5.66,0,0,0,167.83,78Z" fill="#fff"/><path d="M211,75.84a.71.71,0,0,1-.63.76,1.8,1.8,0,0,0-.48.08l-.65.17-1,.21-10.54,24.53a1.46,1.46,0,0,1-.53.67,1.35,1.35,0,0,1-.82.25h-2.77l3.87-8.44-7.48-17A13.39,13.39,0,0,1,188,76.6a.71.71,0,0,1-.63-.76V74h9.53v1.81a.71.71,0,0,1-.63.76c-.28.08-1.06.25-2.35.5l4.75,11.09a6.05,6.05,0,0,1,.36,1.09c.09.42.16.7.18.84a18.25,18.25,0,0,1,.68-1.93l4.57-11.09-2.31-.46a.72.72,0,0,1-.58-.8V74.08h7.89L211,74Z" fill="#fff"/><path d="M232.09,74.87v5.46h-1.64a.66.66,0,0,1-.71-.58L229.49,77a15.44,15.44,0,0,0-3.28-.46h0a4.52,4.52,0,0,0-2.9.93,2.44,2.44,0,0,0-1.13,1.93,2.14,2.14,0,0,0,.5,1.59,5.11,5.11,0,0,0,2.44,1.47l1.26.38,1.34.42,2,.76a5.56,5.56,0,0,1,1.76,1.09,4.43,4.43,0,0,1,1.72,3.7,6.14,6.14,0,0,1-2.06,4.87,8.18,8.18,0,0,1-5.62,2,21.81,21.81,0,0,1-6.89-1.13V88.94h1.51a.59.59,0,0,1,.63.51l.25,2.69a9.68,9.68,0,0,0,4.33.84,4.94,4.94,0,0,0,3.27-1,2.85,2.85,0,0,0,1.1-2.15,2.52,2.52,0,0,0-.51-1.76,4.19,4.19,0,0,0-1.26-1,8.39,8.39,0,0,0-1.76-.67c-2.07-.67-3.38-1.12-3.91-1.34a8.9,8.9,0,0,1-1.89-1.18,4.9,4.9,0,0,1-1.76-3.95,5.48,5.48,0,0,1,2-4.28,8.7,8.7,0,0,1,5.93-1.85A18.3,18.3,0,0,1,232.09,74.87Z" fill="#fff"/></svg>